<svg width="330" height="133" viewBox="0 0 330 133" fill="none" xmlns="http://www.w3.org/2000/svg">
<path fill-rule="evenodd" clip-rule="evenodd" d="M175.78 11.3826C174.166 10.725 172.364 10.6933 170.728 11.2937L6.72166 71.4681C4.12922 72.4192 1.25656 71.0887 0.305384 68.4963C-0.64579 65.9039 0.684717 63.0312 3.27715 62.08L167.283 1.90562C171.257 0.447522 175.632 0.524543 179.553 2.12163L326.886 62.1436C329.443 63.1854 330.672 66.1031 329.63 68.6605C328.588 71.2178 325.67 72.4464 323.113 71.4045L175.78 11.3826Z" fill="white"/>
<path d="M187.008 115.19L186.616 80.2827L196.297 80.1856L196.689 115.093L187.008 115.19ZM191.429 75.7342C189.989 75.7487 188.749 75.2838 187.708 74.3397C186.682 73.3802 186.162 72.2263 186.147 70.8779C186.132 69.5446 186.626 68.3957 187.631 67.431C188.65 66.451 189.879 65.9538 191.319 65.9394C192.758 65.9249 193.991 66.3974 195.017 67.3569C196.058 68.301 196.586 69.4397 196.601 70.773C196.616 72.1214 196.114 73.2856 195.094 74.2656C194.09 75.2302 192.868 75.7198 191.429 75.7342Z" fill="white"/>
<path d="M180.309 80.346L180.391 87.6183L159.369 87.8292L159.287 80.5569L180.309 80.346ZM163.966 72.1459L173.647 72.0488L174.013 104.592C174.023 105.486 174.167 106.182 174.445 106.679C174.723 107.161 175.106 107.498 175.593 107.69C176.095 107.882 176.672 107.975 177.323 107.968C177.778 107.964 178.232 107.921 178.686 107.841C179.139 107.745 179.487 107.674 179.729 107.626L181.332 114.815C180.849 114.971 180.169 115.152 179.293 115.358C178.417 115.579 177.35 115.718 176.093 115.776C173.761 115.891 171.712 115.601 169.946 114.906C168.196 114.212 166.828 113.119 165.841 111.629C164.855 110.139 164.356 108.25 164.346 105.962L163.966 72.1459Z" fill="white"/>
<path d="M131.778 95.5609L132.004 115.741L122.323 115.839L121.931 80.9317L131.158 80.8391L131.227 86.9978L131.636 86.9937C132.386 84.9558 133.663 83.3368 135.468 82.1369C137.273 80.9217 139.47 80.3012 142.061 80.2752C144.485 80.2508 146.605 80.7599 148.42 81.8024C150.234 82.8448 151.653 84.3458 152.675 86.3053C153.697 88.2497 154.223 90.5779 154.253 93.2899L154.503 115.516L144.822 115.613L144.592 95.1142C144.583 92.9778 144.019 91.3167 142.899 90.1309C141.78 88.9299 140.25 88.3392 138.311 88.3586C137.008 88.3717 135.859 88.6636 134.866 89.2342C133.887 89.8046 133.124 90.6305 132.575 91.7118C132.042 92.7778 131.776 94.0609 131.778 95.5609Z" fill="white"/>
<path d="M99.9916 116.745C96.4009 116.781 93.3019 116.084 90.6948 114.656C88.1027 113.212 86.0946 111.156 84.6707 108.489C83.2465 105.806 82.5138 102.624 82.4724 98.9421C82.4321 95.3514 83.0936 92.1931 84.4571 89.4672C85.8205 86.7412 87.7588 84.6081 90.2719 83.0676C92.8002 81.527 95.7764 80.7396 99.2005 80.7052C101.503 80.6821 103.651 81.0318 105.645 81.7542C107.653 82.4614 109.407 83.5423 110.909 84.997C112.425 86.4516 113.612 88.2883 114.471 90.507C115.329 92.7107 115.774 95.2972 115.808 98.2667L115.838 100.926L86.3619 101.221L86.2945 95.2218L106.657 95.0175C106.641 93.6236 106.325 92.3919 105.706 91.3223C105.088 90.2527 104.238 89.4202 103.156 88.825C102.088 88.2145 100.85 87.9163 99.4407 87.9304C97.9711 87.9452 96.672 88.2991 95.5433 88.9923C94.4297 89.6702 93.561 90.5804 92.9375 91.7231C92.3137 92.8506 92.002 94.1038 92.0023 95.4827L92.0664 101.187C92.0858 102.914 92.4207 104.403 93.0712 105.654C93.7368 106.905 94.6643 107.866 95.8537 108.536C97.0431 109.206 98.4484 109.532 100.07 109.516C101.145 109.505 102.128 109.344 103.019 109.032C103.909 108.72 104.669 108.258 105.299 107.645C105.928 107.033 106.405 106.286 106.728 105.404L115.689 105.905C115.259 108.061 114.348 109.949 112.957 111.569C111.581 113.174 109.792 114.434 107.59 115.35C105.403 116.251 102.87 116.716 99.9916 116.745Z" fill="white"/>
<path d="M42.8215 116.636L42.2988 70.0937L60.6615 69.9095C64.1765 69.8742 67.1834 70.4728 69.6823 71.7054C72.1961 72.9227 74.1173 74.6686 75.446 76.9433C76.7896 79.2027 77.4787 81.8701 77.5133 84.9457C77.548 88.0364 76.9112 90.702 75.6029 92.9425C74.2945 95.1679 72.3818 96.8841 69.8649 98.0913C67.3632 99.2982 64.3245 99.9197 60.7489 99.9555L48.4541 100.079L48.3653 92.1703L59.0693 92.0629C60.948 92.0441 62.5056 91.7708 63.7422 91.2433C64.9788 90.7157 65.8943 89.9337 66.4888 88.8974C67.0984 87.8609 67.3946 86.5776 67.3774 85.0474C67.36 83.502 67.0348 82.2022 66.4017 81.1479C65.7838 80.0934 64.843 79.2998 63.5794 78.767C62.3307 78.2189 60.7595 77.9543 58.8656 77.9733L52.2296 78.0399L52.6619 116.537L42.8215 116.636ZM67.7187 95.2036L79.5242 116.268L68.6611 116.377L57.1056 95.31L67.7187 95.2036Z" fill="#0D6EFD"/>
<path fill-rule="evenodd" clip-rule="evenodd" d="M225.318 106.469V89.0624H245.31V80.2748H225.318V70.5108H247.414V61.7232H225.318V52.9355H214.795V106.653C209.394 108.68 205.584 113.592 205.584 119.33C205.584 126.88 212.179 133 220.315 133C228.451 133 235.046 126.88 235.046 119.33C235.046 113.41 230.991 108.37 225.318 106.469ZM220.315 125.135C216.86 125.135 214.059 122.536 214.059 119.33C214.059 116.124 216.86 113.525 220.315 113.525C223.77 113.525 226.571 116.124 226.571 119.33C226.571 122.536 223.77 125.135 220.315 125.135Z" fill="#0D6EFD"/>
<path d="M261.514 128.026C260.286 128.026 259.135 127.928 258.059 127.731C256.999 127.549 256.12 127.314 255.423 127.026L257.605 119.799C258.741 120.148 259.764 120.337 260.673 120.367C261.597 120.398 262.392 120.186 263.059 119.731C263.741 119.276 264.294 118.504 264.718 117.413L265.286 115.936L252.764 80.0265H262.945L270.173 105.663H270.536L277.832 80.0265H288.082L274.514 118.708C273.862 120.587 272.976 122.223 271.855 123.617C270.749 125.026 269.347 126.11 267.65 126.867C265.953 127.64 263.908 128.026 261.514 128.026Z" fill="white"/>
<path d="M269.096 13.896H249.658C249.106 13.896 248.658 14.3437 248.658 14.896V27.5608C248.658 27.965 248.902 28.3295 249.275 28.4845L268.713 36.5506C269.371 36.8238 270.096 36.3399 270.096 35.6269V14.896C270.096 14.3437 269.648 13.896 269.096 13.896Z" fill="white"/>
</svg>
